<?xml version="1.0" encoding="utf-8"?>
<!-- Generator: Adobe Illustrator 27.0.1, SVG Export Plug-In . SVG Version: 6.00 Build 0)  -->
<svg version="1.1" id="Layer_2_00000034803259088113350880000002572029368765890999_"
	 xmlns="http://www.w3.org/2000/svg" xmlns:xlink="http://www.w3.org/1999/xlink" x="0px" y="0px" viewBox="0 0 32 32"
	 style="enable-background:new 0 0 32 32;" xml:space="preserve">
<style type="text/css">
	.st0{fill:#B5B5B5;}
</style>
<g id="Layer_1-2">
	<path class="st0" d="M16,32c-4.4,0-8.2-1.6-11.3-4.7C1.6,24.2,0,20.4,0,16S1.6,7.8,4.7,4.7C7.8,1.6,11.6,0,16,0
		c2.8,0,5.3,0.6,7.5,1.7s4,2.7,5.5,4.7V0h3v12.7H19.3v-3h8.4c-1.3-2-2.9-3.6-4.9-4.8S18.6,3,16,3c-3.6,0-6.7,1.3-9.2,3.8
		S3,12.4,3,16s1.3,6.7,3.8,9.2S12.4,29,16,29c2.8,0,5.3-0.8,7.6-2.4s3.9-3.7,4.8-6.3h3.1c-1,3.5-2.9,6.3-5.8,8.4S19.6,32,16,32
		L16,32z"/>
</g>
</svg>
