<?xml version="1.0" encoding="utf-8"?>
<!-- Generator: Adobe Illustrator 27.0.1, SVG Export Plug-In . SVG Version: 6.00 Build 0)  -->
<svg version="1.1" id="Layer_2_00000074419464849577531990000000949389411111325323_"
	 xmlns="http://www.w3.org/2000/svg" xmlns:xlink="http://www.w3.org/1999/xlink" x="0px" y="0px" viewBox="0 0 31.1 31.1"
	 style="enable-background:new 0 0 31.1 31.1;" xml:space="preserve">
<style type="text/css">
	.st0{fill:#B5B5B5;}
</style>
<g id="Layer_1-2">
	<path class="st0" d="M28.9,31.1l-8.3-8.3c-1,0.9-2.2,1.5-3.5,2s-2.8,0.7-4.2,0.7c-3.6,0-6.7-1.2-9.1-3.8S0,16.3,0,12.8
		s1.2-6.6,3.8-9.1S9.3,0,12.8,0s6.6,1.2,9.1,3.8s3.7,5.5,3.7,9.1c0,1.4-0.2,2.8-0.7,4.1s-1.2,2.6-2.1,3.8l8.3,8.2L28.9,31.1
		L28.9,31.1z M12.9,22.6c2.7,0,5-1,6.9-2.9s2.8-4.2,2.8-6.9s-1-5-2.8-6.9c-1.9-2-4.2-2.9-6.9-2.9s-5.1,1-7,2.9S3,10.1,3,12.8
		s1,5,2.9,6.9C7.8,21.6,10.1,22.6,12.9,22.6z"/>
</g>
</svg>
