<?xml version="1.0" encoding="UTF-8"?>
<svg id="Layer_2" data-name="Layer 2" xmlns="http://www.w3.org/2000/svg" viewBox="0 0 32 32">
  <defs>
    <style>
      .cls-1 {
        fill: #14477a;
      }
    </style>
  </defs>
  <g id="Layer_1-2" data-name="Layer 1">
    <path class="cls-1" d="M16,32c-4.43,0-8.21-1.56-11.33-4.68C1.56,24.21,0,20.43,0,16S1.56,7.79,4.68,4.68C7.79,1.56,11.57,0,16,0c2.83,0,5.32,.58,7.45,1.73s3.98,2.73,5.55,4.73V0h3V12.7h-12.7v-3h8.4c-1.27-2-2.88-3.62-4.85-4.85s-4.25-1.85-6.85-1.85c-3.63,0-6.71,1.26-9.23,3.78-2.52,2.52-3.78,5.59-3.78,9.23s1.26,6.71,3.78,9.23c2.52,2.52,5.59,3.78,9.23,3.78,2.77,0,5.3-.79,7.6-2.38s3.9-3.68,4.8-6.28h3.1c-.97,3.5-2.88,6.32-5.75,8.45s-6.12,3.2-9.75,3.2Z"/>
  </g>
</svg>